<svg xmlns="http://www.w3.org/2000/svg" viewBox="0 0 166.33 123.23"><defs><style>.cls-1{fill:#001c54;}</style></defs><title>Asset 2</title><g id="Layer_2" data-name="Layer 2"><g id="Layer_1-2" data-name="Layer 1"><rect class="cls-1" y="49.1" width="133.42" height="16.56"/><rect class="cls-1" y="24.54" width="105.58" height="16.41"/><rect class="cls-1" width="66.71" height="16.21"/><path class="cls-1" d="M12.73,78.94V93.27c0,3.76-2.49,5.25-6.24,5.25H.14V73.69H6.49C10.24,73.69,12.73,75.18,12.73,78.94ZM6.34,77.31H4.25V94.9H6.34c1.35,0,2.27-.5,2.27-2.27v-13C8.61,77.81,7.69,77.31,6.34,77.31Z"/><path class="cls-1" d="M16.13,98.52V73.69H27v3.62H20.24v6.81h5.68v3.62H20.24V94.9h6.88v3.62Z"/><path class="cls-1" d="M39.89,94.9H37.58L33.86,83.34V98.52H30V73.69h3.9l4.79,14.44,4.82-14.44h4V98.52h-4V83.34Z"/><path class="cls-1" d="M57.22,73.41h.29c3.76,0,6.24,1.49,6.24,5.25V93.55c0,3.76-2.48,5.25-6.24,5.25h-.29c-3.75,0-6.24-1.49-6.24-5.25V78.66C51,74.86,53.47,73.41,57.22,73.41Zm.15,21.77c1.34,0,2.27-.49,2.27-2.27V79.3c0-1.78-.93-2.27-2.27-2.27s-2.27.49-2.27,2.27V92.91C55.1,94.69,56,95.18,57.37,95.18Z"/><path class="cls-1" d="M79.78,93.55c0,3.83-2.49,5.25-6.24,5.25h-.29c-3.76,0-6.24-1.38-6.24-5.25V78.66c0-3.69,2.48-5.25,6.24-5.25h.29c3.75,0,6.24,1.56,6.24,5.25V82.2H75.66V79.3c0-1.78-.92-2.27-2.27-2.27s-2.27.49-2.27,2.27V92.91c0,1.78.93,2.27,2.27,2.27s2.27-.49,2.27-2.27V89.23H73.25V85.75h6.53Z"/><path class="cls-1" d="M92.43,98.52l-3.15-9.9H87.22v9.9H83.11V73.69h6.42c3.76,0,6.24,1.49,6.24,5.25v4.44c0,2.37-1,3.86-2.7,4.6l3.55,10.54ZM87.22,85.08h2.16c1.35,0,2.27-.5,2.27-2.27V79.58c0-1.77-.92-2.27-2.27-2.27H87.22Z"/><path class="cls-1" d="M107,93h-4.54l-.89,5.54h-4l4.61-24.83h5.18l4.68,24.83h-4.19Zm-.53-3.4-1.74-11-1.74,11Z"/><path class="cls-1" d="M126.79,78.94v4.72c0,3.76-2.48,5.25-6.24,5.25h-2.3v9.61h-4.12V73.69h6.42C124.31,73.69,126.79,75.18,126.79,78.94Zm-4.11.64c0-1.77-.92-2.27-2.27-2.27h-2.16v8h2.16c1.35,0,2.27-.5,2.27-2.27Z"/><path class="cls-1" d="M133.53,73.69V84.05h4.71V73.69h4.12V98.52h-4.12V87.74h-4.71V98.52h-4.11V73.69Z"/><path class="cls-1" d="M146,98.52V73.69h4.12V98.52Z"/><path class="cls-1" d="M166.26,93.55c0,3.83-2.49,5.25-6.24,5.25h-.08c-3.75,0-6.24-1.38-6.24-5.25V78.66c0-3.69,2.49-5.25,6.24-5.25H160c3.75,0,6.24,1.56,6.24,5.25V83.2h-4.12V79.3c0-1.74-.85-2.27-2.16-2.27s-2.16.53-2.16,2.27V92.91c0,1.74.85,2.27,2.16,2.27s2.16-.53,2.16-2.27v-4.5h4.12Z"/><path class="cls-1" d="M78.45,16.11H72.61V.09h.91V15.24h4.93Z"/><path class="cls-1" d="M80.55,16.11V.09h6.11V1H81.47V7.55H86v.87H81.47v6.82h5.26v.87Z"/><path class="cls-1" d="M92.84,16.11h-1L88.33.09h1l3.09,14.22L95.47.09h.92Z"/><path class="cls-1" d="M98.63,16.11V.09h6.11V1H99.55V7.55H104v.87H99.55v6.82h5.26v.87Z"/><path class="cls-1" d="M114.17,16.11l-2.79-7h-3.09v7h-.92V.09h3.69c2.43,0,3.57,1.19,3.57,3.39V5.7c0,1.76-.73,2.88-2.29,3.25l2.84,7.16Zm-.46-10.82V3.89C113.71,1.83,113,1,111,1h-2.68V8.22H111C113,8.22,113.71,7.35,113.71,5.29Z"/><path class="cls-1" d="M118.61.09V7.53h5.61V.09h.92v16h-.92V8.4h-5.61v7.71h-.91V.09Z"/><path class="cls-1" d="M135.43,12.91c0,2.24-1.1,3.39-3.52,3.39h-.09c-2.43,0-3.53-1.13-3.53-3.39V.09h.92V12.5c0,2.06.64,2.93,2.65,2.93s2.66-.87,2.66-2.93V.09h.91Z"/><path class="cls-1" d="M144.43,16.11h-5.84V.09h.92V15.24h4.92Z"/><path class="cls-1" d="M152,13.32h-.53l-4-10.8V16.11h-.87V.09h.92l4.23,11.51L156,.09h1v16H156V2.52Z"/><path class="cls-1" d="M160.15,16.11V.09h6.11V1h-5.19V7.55h4.48v.87h-4.48v6.82h5.26v.87Z"/><path class="cls-1" d="M118.74,37.7c0,2.27-1.16,3.43-3.61,3.43h0c-2.46,0-3.62-1.14-3.62-3.43V28c0-2.18,1.16-3.43,3.62-3.43h0c2.45,0,3.61,1.25,3.61,3.43V30.7h-.93V28.39c0-2.07-.69-3-2.71-3s-2.71.9-2.71,3v8.89c0,2.07.7,3,2.71,3s2.71-.9,2.71-3V34.57h.93Z"/><path class="cls-1" d="M121.8,41V24.72H128v.88h-5.26v6.68h4.55v.88h-4.55v6.9h5.33V41Z"/><path class="cls-1" d="M130.65,41V24.72h1l5.73,14v-14h.92V41h-.92l-5.78-14V41Z"/><path class="cls-1" d="M147.54,25.6h-3.13V41h-.93V25.6h-3.12v-.88h7.18Z"/><path class="cls-1" d="M156.51,41l-2.83-7.12h-3.13V41h-.93V24.72h3.74c2.45,0,3.61,1.21,3.61,3.43V30.4c0,1.79-.74,2.92-2.32,3.29L157.53,41ZM156,30V28.57c0-2.09-.74-3-2.78-3h-2.71V33h2.71C155.3,33,156,32.07,156,30Z"/><path class="cls-1" d="M160.07,41V24.72h6.19v.88H161v6.68h4.54v.88H161v6.9h5.33V41Z"/><path class="cls-1" d="M139.3,49.29h6.19v.89h-5.25v6.9h4.52V58h-4.52v7.79h-.94Z"/><path class="cls-1" d="M151.23,49.1h.19c2.49,0,3.67,1.23,3.67,3.48v9.88c0,2.26-1.18,3.49-3.67,3.49h-.19c-2.49,0-3.67-1.23-3.67-3.49V52.58C147.56,50.3,148.74,49.1,151.23,49.1Zm.09,15.95c2.07,0,2.83-.89,2.83-3V53c0-2.12-.76-3-2.83-3s-2.82.89-2.82,3v9C148.5,64.16,149.25,65.05,151.32,65.05Z"/><path class="cls-1" d="M165.27,65.76l-2.87-7.22h-3.17v7.22h-.94V49.29h3.78c2.5,0,3.67,1.22,3.67,3.48v2.28c0,1.82-.75,3-2.35,3.34l2.92,7.37Zm-.47-11.13V53.19c0-2.11-.75-3-2.82-3h-2.75v7.46H162C164.05,57.64,164.8,56.75,164.8,54.63Z"/><path class="cls-1" d="M5.4,112.58V110.3A1.23,1.23,0,0,0,4,108.91a1.23,1.23,0,0,0-1.38,1.39v1.12a1.64,1.64,0,0,0,1.05,1.65l1.91,1.07c1.56.88,2.49,1.6,2.49,3.35v2.35c0,2.51-1.56,3.39-4,3.39H4c-2.47,0-4-.86-4-3.39V117H2.65v2.47a1.29,1.29,0,0,0,1.4,1.44,1.28,1.28,0,0,0,1.39-1.44v-1.28a1.65,1.65,0,0,0-1.07-1.7l-1.88-1.07C.91,114.51,0,113.77,0,112.07v-2.14c0-2.42,1.77-3.35,4-3.35h0c2.23,0,4,.93,4,3.35v2.65Z"/><path class="cls-1" d="M18.19,119.79c0,2.51-1.63,3.44-4.09,3.44h0c-2.47,0-4.09-.9-4.09-3.44V110c0-2.42,1.62-3.44,4.09-3.44h0c2.46,0,4.09,1,4.09,3.44v3h-2.7v-2.56c0-1.14-.56-1.49-1.42-1.49s-1.42.35-1.42,1.49v8.93c0,1.14.56,1.49,1.42,1.49s1.42-.35,1.42-1.49v-3h2.7Z"/><path class="cls-1" d="M20.42,123.05V106.76h2.7v16.29Z"/><path class="cls-1" d="M25.54,123.05V106.76h7.14v2.38H28.24v4.46H32V116H28.24v4.7h4.51v2.37Z"/><path class="cls-1" d="M34.66,123.05V106.76h2.7l3.42,10.08V106.76h2.46v16.29H40.68l-3.56-10.59v10.59Z"/><path class="cls-1" d="M53.71,119.79c0,2.51-1.63,3.44-4.09,3.44h0c-2.47,0-4.1-.9-4.1-3.44V110c0-2.42,1.63-3.44,4.1-3.44h0c2.46,0,4.09,1,4.09,3.44v3H51v-2.56c0-1.14-.56-1.49-1.42-1.49s-1.42.35-1.42,1.49v8.93c0,1.14.56,1.49,1.42,1.49s1.42-.35,1.42-1.49v-3h2.7Z"/><path class="cls-1" d="M55.85,123.05V106.76H63v2.38H58.55v4.46h3.72V116H58.55v4.7h4.51v2.37Z"/></g></g></svg>